<?xml version="1.0" ?><svg id="Layer_1" style="enable-background:new 0 0 128 128;" version="1.1" viewBox="0 0 128 128" xml:space="preserve" xmlns="http://www.w3.org/2000/svg" xmlns:xlink="http://www.w3.org/1999/xlink"><style type="text/css">
	.st0{fill:#725948;}
	.st1{fill:#1C4FBE;}
	.st2{fill:#EE693F;}
	.st3{fill:#FFB8CB;}
	.st4{fill:#F94003;}
	.st5{fill:#DEA740;}
	.st6{fill:#1CB6BE;}
	.st7{fill:#BCCE3E;}
	.st8{fill:#EDEFF2;}
	.st9{fill:#684E3C;}
	.st10{fill:#100F0D;}
	.st11{fill:#5B4332;}
	.st12{fill:#5C7242;}
	.st13{fill:#E1B0AF;}
	.st14{fill:#EC5527;}
	.st15{fill:#057590;}
	.st16{fill:#771C39;}
	.st17{fill:#F8A70C;}
	.st18{fill:#F06522;}
	.st19{fill:#FFFFFF;}
	.st20{fill:#CC7C2C;}
	.st21{fill:#5D6124;}
	.st22{fill:#E6AA30;}
	.st23{fill:#2AB06A;}
	.st24{fill:#1A1613;}
	.st25{fill:none;}
	.st26{fill:#EE4D4C;}
	.st27{fill:#0000FF;}
	.st28{fill:#FC4310;}
	.st29{fill:#03A551;}
	.st30{fill:#E6222A;}
	.st31{fill:#FAFCFB;}
	.st32{fill:#070707;}
	.st33{fill:#BB8B90;}
	.st34{fill:#B298E5;}
	.st35{fill:#19191B;}
</style><path class="st29" d="M117.6,99.2l2.2,3.5l-2.5,18l-2.7,2.2l-49.7-5.8l-22.1,10.7l-32.3-14.6l6.4-50.6l34-9.2l-8.5-7.7l8.4-37  l5.3-4.8l29.6,3.3L76.4,62l36.1-12.2l1.2,0.8l4.2,17.7l0-0.1l0.2,0.7l-2,2.8l-8.2-1.9l-3.6,6.4l-9.4-2.8L88.2,81l-10.1-1.2l-8.6,9.5  l6.1,5.8l8.6-1.7l5.9,6.3l8.8-4.6l8.4,7.5l6.4-5.4L117.6,99.2L117.6,99.2z"/><path class="st30" d="M68.8,84.5c0.2-0.9,33.3-1.1,43.6-0.3l0,2.1c0,0.4-41,5.4-42.9,5.6L68.8,84.5z"/><path class="st31" d="M33.5,103.8l-3.4-0.1l-4-4.5l5.9-23.4l6-3.9l14.6-1.6l5.5,8.1l-4,16.6l-7,5.5L33.5,103.8L33.5,103.8z"/><path class="st31" d="M51.6,33.7l4-13.6l6.7-4.3l11.2,1.4l3.9,5.9l-0.5,8.5l-4.6,8.4l-11.9,1.7L51.7,37L51.6,33.7L51.6,33.7z"/><polygon class="st32" points="44,94.1 42.6,92.5 47.9,82.5 54.8,81.8 54.7,82.6 48.2,91.7 44,94.1 "/><polygon class="st32" points="74,25.9 66.8,37.7 64.9,37.8 64.2,35.9 66.8,27.4 72.7,24.5 74,25.9 "/></svg>